P2
4 4
255
0 0 3 4 
0 0 0 0 
5 6 7 8 
0 0 0 0 